<svg width="32" height="32" viewBox="0 0 32 32" fill="none" xmlns="http://www.w3.org/2000/svg" role="img" aria-label="QSM.rs">
  <defs>
    <linearGradient id="ic-rs" x1="2" y1="2" x2="30" y2="30" gradientUnits="userSpaceOnUse">
      <stop stop-color="#fdba74"/><stop offset="1" stop-color="#ea580c"/>
    </linearGradient>
  </defs>
  <rect x="1.5" y="1.5" width="29" height="29" rx="8" fill="url(#ic-rs)"/>
  <!-- engine: a core building block (cube) -->
  <g transform="translate(4,4)" stroke="#fff" stroke-width="2.1" stroke-linecap="round" stroke-linejoin="round" fill="none">
    <path d="M21 16V8a2 2 0 0 0-1-1.73l-7-4a2 2 0 0 0-2 0l-7 4A2 2 0 0 0 3 8v8a2 2 0 0 0 1 1.73l7 4a2 2 0 0 0 2 0l7-4A2 2 0 0 0 21 16z"/>
    <path d="M3.3 7 12 12l8.7-5"/>
    <path d="M12 22V12"/>
  </g>
</svg>
